<?xml version="1.0" encoding="UTF-8"?>
<svg xmlns="http://www.w3.org/2000/svg" width="269.629" height="70.118" viewBox="0 0 269.629 70.118">
  <g id="svgGroup" stroke-linecap="round" fill-rule="evenodd" font-size="9pt" stroke="currentColor" stroke-width="0.25mm" fill="currentColor" style="stroke:currentColor;stroke-width:0.25mm;fill:currentColor">
    <path d="M 269.629 34.717 L 269.629 52.54 A 17.285 17.285 0 0 1 269.344 55.592 A 23.113 23.113 0 0 1 268.701 58.228 A 16.999 16.999 0 0 1 265.698 63.892 A 15.856 15.856 0 0 1 262.071 67.198 A 19.604 19.604 0 0 1 260.278 68.262 Q 257.13 69.917 252.704 70.014 A 25.375 25.375 0 0 1 252.149 70.02 L 229.248 70.02 A 17.285 17.285 0 0 1 226.195 69.735 A 23.113 23.113 0 0 1 223.56 69.092 A 16.999 16.999 0 0 1 217.896 66.089 A 15.856 15.856 0 0 1 214.59 62.462 A 19.604 19.604 0 0 1 213.525 60.669 Q 211.871 57.521 211.774 53.095 A 25.375 25.375 0 0 1 211.768 52.54 A 17.294 17.294 0 0 1 212.03 49.614 A 23.362 23.362 0 0 1 212.695 46.827 Q 213.623 43.75 215.698 41.138 A 15.856 15.856 0 0 1 219.326 37.832 A 19.604 19.604 0 0 1 221.118 36.768 Q 224.267 35.113 228.692 35.016 A 25.375 25.375 0 0 1 229.248 35.01 L 252.149 35.01 L 252.149 47.12 L 229.248 47.12 A 6.766 6.766 0 0 0 227.607 47.307 A 4.567 4.567 0 0 0 225.244 48.707 A 5.543 5.543 0 0 0 223.853 52.028 A 7.291 7.291 0 0 0 223.828 52.637 A 6.086 6.086 0 0 0 224.039 54.285 A 4.442 4.442 0 0 0 225.464 56.519 A 5.797 5.797 0 0 0 229.346 57.911 L 252.149 57.911 A 6.867 6.867 0 0 0 253.789 57.726 A 4.581 4.581 0 0 0 256.152 56.348 A 5.422 5.422 0 0 0 257.534 53.155 A 7.197 7.197 0 0 0 257.568 52.442 L 257.568 34.717 A 6.509 6.509 0 0 0 257.352 32.994 A 4.755 4.755 0 0 0 256.03 30.762 Q 254.492 29.297 252.149 29.297 L 224.268 29.297 L 224.268 17.237 L 252.149 17.237 A 17.285 17.285 0 0 1 255.201 17.522 A 23.113 23.113 0 0 1 257.837 18.165 A 16.999 16.999 0 0 1 263.501 21.167 A 15.856 15.856 0 0 1 266.807 24.795 A 19.604 19.604 0 0 1 267.871 26.587 Q 269.526 29.736 269.623 34.161 A 25.375 25.375 0 0 1 269.629 34.717 Z M 198.731 17.237 L 212.207 17.237 A 132.135 132.135 0 0 1 207.178 30.42 Q 204.297 36.915 200.562 42.798 Q 196.826 48.682 192.212 53.687 A 53.61 53.61 0 0 1 182.007 62.33 A 49.545 49.545 0 0 1 169.849 68.042 A 45.062 45.062 0 0 1 159.495 69.98 A 53.672 53.672 0 0 1 155.615 70.118 A 6.409 6.409 0 0 1 153.125 69.629 Q 151.953 69.141 151.074 68.287 Q 150.195 67.432 149.707 66.285 A 6.211 6.211 0 0 1 149.219 63.901 A 7.077 7.077 0 0 1 149.219 63.819 L 149.219 17.237 L 161.914 17.237 L 161.914 56.934 A 20.764 20.764 0 0 0 170.825 54.932 A 34.746 34.746 0 0 0 178.188 50.241 A 39.041 39.041 0 0 0 178.906 49.634 A 51.654 51.654 0 0 0 185.962 42.139 A 75.931 75.931 0 0 0 191.748 33.521 A 81.84 81.84 0 0 0 194.882 27.526 A 70.358 70.358 0 0 0 196.069 24.854 A 74.487 74.487 0 0 0 197.279 21.792 Q 197.899 20.108 198.353 18.586 A 40.667 40.667 0 0 0 198.731 17.237 Z M 69.971 29.297 L 69.971 40.723 A 32.137 32.137 0 0 1 69.025 48.632 A 28.14 28.14 0 0 1 67.749 52.491 A 28.051 28.051 0 0 1 62.118 61.237 A 26.971 26.971 0 0 1 61.621 61.744 A 28.06 28.06 0 0 1 52.428 67.788 A 31.804 31.804 0 0 1 52.344 67.823 A 29.893 29.893 0 0 1 42.62 69.966 A 34.926 34.926 0 0 1 40.674 70.02 L 6.397 70.02 A 6.727 6.727 0 0 1 4.475 69.751 A 6.147 6.147 0 0 1 3.858 69.532 A 6.207 6.207 0 0 1 1.831 68.189 A 6.207 6.207 0 0 1 0.488 66.163 A 6.434 6.434 0 0 1 0.008 63.962 A 7.46 7.46 0 0 1 0 63.624 L 0 6.397 A 6.409 6.409 0 0 1 0.488 3.907 Q 0.977 2.735 1.831 1.856 A 6.022 6.022 0 0 1 3.858 0.489 A 6.434 6.434 0 0 1 6.058 0.008 A 7.46 7.46 0 0 1 6.397 0 L 40.674 0 A 31.696 31.696 0 0 1 49.073 1.087 A 28.483 28.483 0 0 1 52.344 2.198 A 28.137 28.137 0 0 1 61.376 8.036 A 27.198 27.198 0 0 1 61.621 8.277 A 27.766 27.766 0 0 1 67.591 17.177 A 31.692 31.692 0 0 1 67.749 17.554 A 29.894 29.894 0 0 1 69.917 27.337 A 35.058 35.058 0 0 1 69.971 29.297 Z M 138.428 35.01 L 138.428 52.198 A 22.245 22.245 0 0 1 138.22 55.304 A 17.001 17.001 0 0 1 137.598 58.082 A 18.619 18.619 0 0 1 136.423 60.96 A 15.321 15.321 0 0 1 135.4 62.671 A 14.948 14.948 0 0 1 132.283 65.997 A 14.204 14.204 0 0 1 132.227 66.04 A 18.521 18.521 0 0 1 128.442 68.311 A 19.451 19.451 0 0 1 124.439 69.605 A 20.798 20.798 0 0 1 122.11 69.951 A 16.981 16.981 0 0 1 120.606 70.02 L 97.705 70.02 Q 95.068 70.02 91.943 69.092 Q 88.818 68.165 86.157 66.04 A 16.257 16.257 0 0 1 82.786 62.331 A 19.917 19.917 0 0 1 81.714 60.523 A 14.704 14.704 0 0 1 80.377 56.745 Q 80.015 55.054 79.947 53.109 A 26.126 26.126 0 0 1 79.932 52.198 L 79.932 35.01 Q 79.932 30.592 81.391 27.393 A 13.198 13.198 0 0 1 81.714 26.734 A 18.559 18.559 0 0 1 84.068 23.234 A 15.587 15.587 0 0 1 86.157 21.216 Q 88.818 19.092 91.943 18.165 A 24.203 24.203 0 0 1 94.766 17.499 Q 96.304 17.237 97.705 17.237 L 120.606 17.237 A 22.688 22.688 0 0 1 124.331 17.527 Q 126.479 17.885 128.26 18.684 A 13.487 13.487 0 0 1 128.906 18.995 A 18.072 18.072 0 0 1 132.324 21.249 A 14.985 14.985 0 0 1 134.424 23.414 Q 136.524 26.075 137.476 29.2 A 23.335 23.335 0 0 1 138.182 32.169 A 17.329 17.329 0 0 1 138.428 35.01 Z M 57.275 40.723 L 57.275 29.297 Q 57.275 25.586 56.079 22.51 Q 54.883 19.434 52.686 17.261 A 15.249 15.249 0 0 0 47.674 13.987 A 17.463 17.463 0 0 0 47.437 13.892 A 17.377 17.377 0 0 0 42.819 12.801 A 21.337 21.337 0 0 0 40.674 12.696 L 12.695 12.696 L 12.695 57.325 L 40.674 57.325 A 19.983 19.983 0 0 0 44.744 56.925 A 16.627 16.627 0 0 0 47.437 56.128 Q 50.488 54.932 52.686 52.759 A 14.82 14.82 0 0 0 55.984 47.772 A 17.015 17.015 0 0 0 56.079 47.535 A 17.302 17.302 0 0 0 57.147 43.114 A 21.615 21.615 0 0 0 57.275 40.723 Z M 125.733 52.198 L 125.733 35.108 A 8.378 8.378 0 0 0 125.616 33.663 Q 125.479 32.879 125.178 32.263 A 3.732 3.732 0 0 0 124.414 31.202 A 4.243 4.243 0 0 0 122.683 30.211 Q 122.029 30.011 121.242 29.954 A 8.905 8.905 0 0 0 120.606 29.932 L 97.803 29.932 Q 96.027 29.932 94.849 30.565 A 3.945 3.945 0 0 0 93.945 31.226 Q 92.777 32.373 92.644 34.459 A 8.671 8.671 0 0 0 92.627 35.01 L 92.627 52.198 Q 92.627 54.044 93.352 55.246 A 3.966 3.966 0 0 0 93.945 56.006 A 4.201 4.201 0 0 0 95.691 57.035 Q 96.353 57.243 97.155 57.302 A 8.897 8.897 0 0 0 97.803 57.325 L 120.606 57.325 A 8.063 8.063 0 0 0 122.06 57.202 Q 122.856 57.056 123.477 56.735 A 3.739 3.739 0 0 0 124.463 56.006 A 4.243 4.243 0 0 0 125.454 54.275 Q 125.654 53.621 125.71 52.834 A 8.905 8.905 0 0 0 125.733 52.198 Z" vector-effect="non-scaling-stroke"></path>
  </g>
</svg>
